<svg xmlns="http://www.w3.org/2000/svg" width="512" height="512" viewBox="0 0 24 24">
  <rect width="24" height="24" rx="5.4" fill="#150404"/>
  <g transform="translate(4.56, 4.56) scale(0.62)"
     stroke="white" stroke-width="2.1" stroke-linecap="round" stroke-linejoin="round" fill="none">
    <path d="M8.5 14.5A2.5 2.5 0 0 0 11 17c1.38 0 2.5-1.12 2.5-2.5 0-1.11-.76-2.04-1.79-2.39L10 11.5c0 0-1.5-2-1.5-4.5 0 0-2 1.5-2 4.5 0 .75.13 1.5.37 2.17"/>
    <path d="M12 2C6 8 4 13 4 17a8 8 0 0 0 16 0c0-5.33-4-10.67-8-15z"/>
  </g>
</svg>